<?xml version="1.0" encoding="UTF-8"?>
<svg id="Layer_1" data-name="Layer 1" xmlns="http://www.w3.org/2000/svg" viewBox="0 0 400 400">
  <defs>
    <style>
      .cls-1 {
        fill: #fff;
      }

      .cls-2 {
        fill: none;
        stroke: #fff;
        stroke-linecap: round;
        stroke-miterlimit: 10;
        stroke-width: 7px;
      }
    </style>
  </defs>
  <g>
    <polyline class="cls-2" points="363.62 52.15 363.62 94.51 228.93 229.19 311.02 311.27"/>
    <path class="cls-1" d="M347.83,52.94c0-8.72,7.07-15.79,15.79-15.79s15.79,7.07,15.79,15.79-7.07,15.79-15.79,15.79-15.79-7.07-15.79-15.79Z"/>
    <path class="cls-1" d="M299.29,321.88c6.17,6.17,16.17,6.17,22.33,0s6.17-16.17,0-22.33-16.17-6.17-22.33,0-6.17,16.17,0,22.33Z"/>
  </g>
  <g>
    <polyline class="cls-2" points="300.48 242.36 364.13 306.01 364.13 362.85 274.51 362.85 274.51 338.27 170.55 234.31"/>
    <path class="cls-1" d="M289.87,254.08c-6.17-6.17-6.17-16.17,0-22.33,6.17-6.17,16.17-6.17,22.33,0,6.17,6.17,6.17,16.17,0,22.33-6.17,6.17-16.17,6.17-22.33,0Z"/>
  </g>
  <g>
    <polyline class="cls-2" points="232.88 89.02 280.14 41.76 317.53 41.76 317.53 80.17 83.5 314.2 83.5 362.85 35.87 362.85 35.87 302.42 169.53 168.76 95.13 94.36"/>
    <path class="cls-1" d="M244.61,99.63c-6.17,6.17-16.17,6.17-22.33,0-6.17-6.17-6.17-16.17,0-22.33,6.17-6.17,16.17-6.17,22.33,0,6.17,6.17,6.17,16.17,0,22.33Z"/>
    <path class="cls-1" d="M106.85,83.75c-6.17-6.17-16.17-6.17-22.33,0-6.17,6.17-6.17,16.17,0,22.33,6.17,6.17,16.17,6.17,22.33,0,6.17-6.17,6.17-16.17,0-22.33Z"/>
  </g>
  <g>
    <polyline class="cls-2" points="97.98 155.59 42.53 100.14 42.53 41.76 129.07 41.76 129.07 68.9 228.93 168.76"/>
    <path class="cls-1" d="M108.59,143.87c6.17,6.17,6.17,16.17,0,22.33s-16.17,6.17-22.33,0-6.17-16.17,0-22.33,16.17-6.17,22.33,0Z"/>
  </g>
  <g>
    <polyline class="cls-2" points="203.84 267.6 146.48 324.95 146.48 347.85"/>
    <path class="cls-1" d="M130.69,347.06c0,8.72,7.07,15.79,15.79,15.79s15.79-7.07,15.79-15.79-7.07-15.79-15.79-15.79-15.79,7.07-15.79,15.79Z"/>
  </g>
</svg>